<?xml version="1.0" standalone="no"?>
<!DOCTYPE svg PUBLIC "-//W3C//DTD SVG 1.1//EN" "http://www.w3.org/Graphics/SVG/1.1/DTD/svg11.dtd" >
<svg>
<metadata>
Created by FontForge 20090622 at Thu Sep  1 10:15:31 2016
 By deploy user
(C) 2000 Takatoshi "takker"  katoh
</metadata>
<defs>
<font id="TR-909" horiz-adv-x="512" >
  <font-face 
    font-family="TR-909"
    font-weight="400"
    font-stretch="normal"
    units-per-em="1024"
    panose-1="2 11 6 0 0 0 0 0 0 0"
    ascent="819"
    descent="-205"
    x-height="540"
    cap-height="540"
    bbox="0 0 940 540"
    underline-thickness="48"
    underline-position="-72"
    unicode-range="U+0020-U+2219"
  />
<missing-glyph 
d="M206 400v100h100v-100h-100z" />
    <glyph glyph-name=".notdef" 
d="M206 400v100h100v-100h-100z" />
    <glyph glyph-name="NULL" horiz-adv-x="0" 
 />
    <glyph glyph-name="space" unicode=" " 
 />
    <glyph glyph-name="exclam" unicode="!" 
 />
    <glyph glyph-name="quotedbl" unicode="&#x22;" 
 />
    <glyph glyph-name="numbersign" unicode="#" 
 />
    <glyph glyph-name="dollar" unicode="$" 
 />
    <glyph glyph-name="uni0025" unicode="%" 
 />
    <glyph glyph-name="ampersand" unicode="&#x26;" 
 />
    <glyph glyph-name="quotesingle" unicode="'" 
 />
    <glyph glyph-name="parenleft" unicode="(" 
 />
    <glyph glyph-name="parenright" unicode=")" 
 />
    <glyph glyph-name="asterisk" unicode="*" 
 />
    <glyph glyph-name="plus" unicode="+" 
 />
    <glyph glyph-name="comma" unicode="," 
 />
    <glyph glyph-name="hyphen" unicode="-" horiz-adv-x="260" 
d="M0 320h220v-80h-220v80z" />
    <glyph glyph-name="period" unicode="." 
 />
    <glyph glyph-name="slash" unicode="/" horiz-adv-x="640" 
d="M460 540h160l-440 -540h-160z" />
    <glyph glyph-name="zero" unicode="0" horiz-adv-x="820" 
d="M180 540h460q120 0 120 -100v-340q0 -100 -120 -100h-460q-120 0 -120 100v340q0 100 120 100zM620 440h-420q-20 0 -20 -20v-300q0 -20 20 -20h420q20 0 20 20v300q0 20 -20 20z" />
    <glyph glyph-name="one" unicode="1" horiz-adv-x="280" 
d="M0 540h100q120 0 120 -100v-440h-120v420q0 20 -20 20h-80v100z" />
    <glyph glyph-name="two" unicode="2" horiz-adv-x="820" 
d="M60 540h580q120 0 120 -100v-100q0 -100 -120 -100h-440q-20 0 -20 -20v-120h580v-100h-700v240q0 100 120 100h440q20 0 20 20v60q0 20 -20 20h-560v100z" />
    <glyph glyph-name="three" unicode="3" horiz-adv-x="820" 
d="M60 540h580q120 0 120 -100v-100q0 -30 -30 -50q30 -20 30 -50v-140q0 -100 -120 -100h-580v100h560q20 0 20 20v100q0 20 -20 20h-560v100h560q20 0 20 20v60q0 20 -20 20h-560v100z" />
    <glyph glyph-name="four" unicode="4" horiz-adv-x="820" 
d="M640 0v100h-460q-120 0 -120 100q0 60 120 120l380 200q40 20 80 20h120v-100v-440h-120zM640 200v240l-460 -240h460z" />
    <glyph glyph-name="five" unicode="5" horiz-adv-x="820" 
d="M60 0v100h560q20 0 20 20v100q0 20 -20 20h-560v300h700v-100h-580v-100h460q120 0 120 -100v-140q0 -100 -120 -100h-580z" />
    <glyph glyph-name="six" unicode="6" horiz-adv-x="820" 
d="M760 540v-100h-560q-20 0 -20 -20v-80h460q120 0 120 -100v-140q0 -100 -120 -100h-460q-120 0 -120 100v340q0 100 120 100h580zM620 240h-440v-120q0 -20 20 -20h420q20 0 20 20v100q0 20 -20 20z" />
    <glyph glyph-name="seven" unicode="7" horiz-adv-x="820" 
d="M60 540h700v-100l-390 -440h-170l390 440h-530v100z" />
    <glyph glyph-name="eight" unicode="8" horiz-adv-x="820" 
d="M180 540h460q120 0 120 -100v-100q0 -28 -30 -50q30 -20 30 -50v-140q0 -100 -120 -100h-460q-120 0 -120 100v140q0 30 30 50q-30 20 -30 50v100q0 100 120 100zM620 440h-420q-20 0 -20 -20v-60q0 -20 20 -20h420q20 0 20 20v60q0 20 -20 20zM620 240h-420
q-20 0 -20 -20v-100q0 -20 20 -20h420q20 0 20 20v100q0 20 -20 20z" />
    <glyph glyph-name="nine" unicode="9" horiz-adv-x="820" 
d="M60 0v100h560q20 0 20 20v120h-460q-120 0 -120 100v100q0 100 120 100h460q120 0 120 -100v-340q0 -100 -120 -100h-580zM200 340h440v80q0 20 -20 20h-420q-20 0 -20 -20v-60q0 -20 20 -20z" />
    <glyph glyph-name="colon" unicode=":" 
 />
    <glyph glyph-name="semicolon" unicode=";" 
 />
    <glyph glyph-name="less" unicode="&#x3c;" 
 />
    <glyph glyph-name="equal" unicode="=" 
 />
    <glyph glyph-name="greater" unicode="&#x3e;" 
 />
    <glyph glyph-name="question" unicode="?" 
 />
    <glyph glyph-name="at" unicode="@" 
 />
    <glyph glyph-name="A" unicode="A" horiz-adv-x="740" 
d="M460 500l264 -500h-144l-50 100h-320l-50 -100h-140l260 500q20 40 90 40t90 -40zM370 420l-110 -220h220z" />
    <glyph glyph-name="B" unicode="B" horiz-adv-x="820" 
d="M60 540h580q120 0 120 -100v-100q0 -30 -30 -50q30 -20 30 -50v-140q0 -100 -120 -100h-580v340h560q20 0 20 20v60q0 20 -20 20h-560v100zM620 240h-440v-140h440q20 0 20 20v100q0 20 -20 20z" />
    <glyph glyph-name="C" unicode="C" horiz-adv-x="820" 
d="M760 540v-100h-560q-20 0 -20 -20v-300q0 -20 20 -20h560v-100h-580q-120 0 -120 100v340q0 100 120 100h580z" />
    <glyph glyph-name="D" unicode="D" horiz-adv-x="820" 
d="M60 540h580q120 0 120 -100v-340q0 -100 -120 -100h-580v340h120v-240h440q20 0 20 20v300q0 20 -20 20h-560v100z" />
    <glyph glyph-name="E" unicode="E" horiz-adv-x="820" 
d="M760 540v-100h-560q-20 0 -20 -20v-80h580v-100h-580v-120q0 -20 20 -20h560v-100h-580q-120 0 -120 100v340q0 100 120 100h580z" />
    <glyph glyph-name="F" unicode="F" horiz-adv-x="820" 
d="M760 540v-100h-560q-20 0 -20 -20v-80h580v-100h-580v-240h-120v440q0 100 120 100h580z" />
    <glyph glyph-name="G" unicode="G" horiz-adv-x="820" 
d="M760 540v-100h-560q-20 0 -20 -20v-300q0 -20 20 -20h440v140h-230v100h350v-240q0 -100 -120 -100h-460q-120 0 -120 100v340q0 100 120 100h580z" />
    <glyph glyph-name="H" unicode="H" horiz-adv-x="820" 
d="M180 540v-200h460v200h120v-540h-120v240h-460v-240h-120v540h120z" />
    <glyph glyph-name="I" unicode="I" horiz-adv-x="200" 
d="M160 540v-540h-120v540h120z" />
    <glyph glyph-name="J" unicode="J" horiz-adv-x="800" 
d="M620 540h120v-440q0 -100 -120 -100h-460l-120 100h560q20 0 20 20v420z" />
    <glyph glyph-name="K" unicode="K" horiz-adv-x="780" 
d="M60 540h120v-200h80l260 200h180l-340 -260l400 -280h-200l-340 240h-40v-240h-120v540z" />
    <glyph glyph-name="L" unicode="L" horiz-adv-x="800" 
d="M180 540v-420q0 -20 20 -20h560v-100h-580q-120 0 -120 100v440h120z" />
    <glyph glyph-name="M" unicode="M" horiz-adv-x="940" 
d="M520 0h-100l-260 440v-440h-120v440q0 100 120 100q60 0 100 -60l210 -360l210 360q40 60 100 60q118 0 120 -100v-440h-120v440z" />
    <glyph glyph-name="N" unicode="N" horiz-adv-x="820" 
d="M760 540v-440q0 -100 -120 -100q-60 0 -100 40l-360 400v-440h-120v440q0 100 120 100q60 0 100 -40l360 -400v440h120z" />
    <glyph glyph-name="O" unicode="O" horiz-adv-x="820" 
d="M180 540h460q120 0 120 -100v-340q0 -100 -120 -100h-460q-120 0 -120 100v340q0 100 120 100zM620 440h-420q-20 0 -20 -20v-300q0 -20 20 -20h420q20 0 20 20v300q0 20 -20 20z" />
    <glyph glyph-name="P" unicode="P" horiz-adv-x="820" 
d="M60 540h580q120 0 120 -100v-100q0 -100 -120 -100h-460v-240h-120v340h560q20 0 20 20v60q0 20 -20 20h-560v100z" />
    <glyph glyph-name="Q" unicode="Q" horiz-adv-x="820" 
d="M180 540h460q120 0 120 -100v-340q0 -100 -120 -100h-460q-120 0 -120 100v340q0 100 120 100zM620 440h-420q-20 0 -20 -20v-300q0 -20 20 -20h280l-80 100h140l80 -100q20 0 20 20v300q0 20 -20 20z" />
    <glyph glyph-name="R" unicode="R" horiz-adv-x="820" 
d="M60 540h580q120 0 120 -100v-100q0 -50 -30 -60q30 -20 30 -60l30 -220h-120l-30 220q0 20 -20 20h-440v-240h-120v340h560q20 0 20 20v60q0 20 -20 20h-560v100z" />
    <glyph glyph-name="S" unicode="S" horiz-adv-x="820" 
d="M760 540v-100h-560q-20 -10 -20 -30t20 -30l420 -120q140 -40 140 -100v-60q0 -100 -120 -100h-580v100h560q20 10 20 30t-20 30l-420 120q-140 40 -140 100v60q0 100 120 100h580z" />
    <glyph glyph-name="T" unicode="T" horiz-adv-x="740" 
d="M20 440v100h700v-100h-290v-440h-120v440h-290z" />
    <glyph glyph-name="U" unicode="U" horiz-adv-x="820" 
d="M760 540v-440q0 -100 -120 -100h-460q-120 0 -120 100v440h120v-420q0 -20 20 -20h420q20 0 20 20v420h120z" />
    <glyph glyph-name="V" unicode="V" horiz-adv-x="740" 
d="M460 40q-20 -40 -90 -40t-90 40l-260 500h140l210 -420l210 420h140z" />
    <glyph glyph-name="W" unicode="W" horiz-adv-x="960" 
d="M420 540h120l140 -420l140 420h120l-160 -480q-20 -60 -80 -60h-20q-60 0 -80 60l-120 340l-120 -340q-20 -60 -80 -60h-20q-60 0 -80 60l-160 480h120l140 -420z" />
    <glyph glyph-name="X" unicode="X" horiz-adv-x="780" 
d="M20 540h160l200 -200l220 200h160l-300 -280l300 -260h-160l-220 180l-200 -180h-160l280 260z" />
    <glyph glyph-name="Y" unicode="Y" horiz-adv-x="740" 
d="M20 540h160l190 -200l190 200h160l-290 -300v-240h-120v240z" />
    <glyph glyph-name="Z" unicode="Z" horiz-adv-x="820" 
d="M60 540h580h120v-100q0 -60 -60 -90l-520 -250h580v-100h-580h-120v100q0 50 60 80l520 260h-580v100z" />
    <glyph glyph-name="bracketleft" unicode="[" 
 />
    <glyph glyph-name="backslash" unicode="\" 
 />
    <glyph glyph-name="bracketright" unicode="]" 
 />
    <glyph glyph-name="asciicircum" unicode="^" 
 />
    <glyph glyph-name="underscore" unicode="_" 
 />
    <glyph glyph-name="grave" unicode="`" 
 />
    <glyph glyph-name="a" unicode="a" horiz-adv-x="740" 
d="M460 500l264 -500h-144l-50 100h-320l-50 -100h-140l260 500q20 40 90 40t90 -40zM370 420l-110 -220h220z" />
    <glyph glyph-name="b" unicode="b" horiz-adv-x="820" 
d="M60 540h580q120 0 120 -100v-100q0 -30 -30 -50q30 -20 30 -50v-140q0 -100 -120 -100h-580v340h560q20 0 20 20v60q0 20 -20 20h-560v100zM620 240h-440v-140h440q20 0 20 20v100q0 20 -20 20z" />
    <glyph glyph-name="c" unicode="c" horiz-adv-x="820" 
d="M760 540v-100h-560q-20 0 -20 -20v-300q0 -20 20 -20h560v-100h-580q-120 0 -120 100v340q0 100 120 100h580z" />
    <glyph glyph-name="d" unicode="d" horiz-adv-x="820" 
d="M60 540h580q120 0 120 -100v-340q0 -100 -120 -100h-580v340h120v-240h440q20 0 20 20v300q0 20 -20 20h-560v100z" />
    <glyph glyph-name="e" unicode="e" horiz-adv-x="820" 
d="M760 540v-100h-560q-20 0 -20 -20v-80h580v-100h-580v-120q0 -20 20 -20h560v-100h-580q-120 0 -120 100v340q0 100 120 100h580z" />
    <glyph glyph-name="f" unicode="f" horiz-adv-x="820" 
d="M760 540v-100h-560q-20 0 -20 -20v-80h580v-100h-580v-240h-120v440q0 100 120 100h580z" />
    <glyph glyph-name="g" unicode="g" horiz-adv-x="820" 
d="M760 540v-100h-560q-20 0 -20 -20v-300q0 -20 20 -20h440v140h-230v100h350v-240q0 -100 -120 -100h-460q-120 0 -120 100v340q0 100 120 100h580z" />
    <glyph glyph-name="h" unicode="h" horiz-adv-x="820" 
d="M180 540v-200h460v200h120v-540h-120v240h-460v-240h-120v540h120z" />
    <glyph glyph-name="i" unicode="i" horiz-adv-x="200" 
d="M160 540v-540h-120v540h120z" />
    <glyph glyph-name="j" unicode="j" horiz-adv-x="800" 
d="M620 540h120v-440q0 -100 -120 -100h-460l-120 100h560q20 0 20 20v420z" />
    <glyph glyph-name="k" unicode="k" horiz-adv-x="780" 
d="M60 540h120v-200h80l260 200h180l-340 -260l400 -280h-200l-340 240h-40v-240h-120v540z" />
    <glyph glyph-name="l" unicode="l" horiz-adv-x="800" 
d="M180 540v-420q0 -20 20 -20h560v-100h-580q-120 0 -120 100v440h120z" />
    <glyph glyph-name="m" unicode="m" horiz-adv-x="940" 
d="M520 0h-100l-260 440v-440h-120v440q0 100 120 100q60 0 100 -60l210 -360l210 360q40 60 100 60q118 0 120 -100v-440h-120v440z" />
    <glyph glyph-name="n" unicode="n" horiz-adv-x="820" 
d="M760 540v-440q0 -100 -120 -100q-60 0 -100 40l-360 400v-440h-120v440q0 100 120 100q60 0 100 -40l360 -400v440h120z" />
    <glyph glyph-name="o" unicode="o" horiz-adv-x="820" 
d="M180 540h460q120 0 120 -100v-340q0 -100 -120 -100h-460q-120 0 -120 100v340q0 100 120 100zM620 440h-420q-20 0 -20 -20v-300q0 -20 20 -20h420q20 0 20 20v300q0 20 -20 20z" />
    <glyph glyph-name="p" unicode="p" horiz-adv-x="820" 
d="M60 540h580q120 0 120 -100v-100q0 -100 -120 -100h-460v-240h-120v340h560q20 0 20 20v60q0 20 -20 20h-560v100z" />
    <glyph glyph-name="q" unicode="q" horiz-adv-x="820" 
d="M180 540h460q120 0 120 -100v-340q0 -100 -120 -100h-460q-120 0 -120 100v340q0 100 120 100zM620 440h-420q-20 0 -20 -20v-300q0 -20 20 -20h280l-80 100h140l80 -100q20 0 20 20v300q0 20 -20 20z" />
    <glyph glyph-name="r" unicode="r" horiz-adv-x="820" 
d="M60 540h580q120 0 120 -100v-100q0 -50 -30 -60q30 -20 30 -60l30 -220h-120l-30 220q0 20 -20 20h-440v-240h-120v340h560q20 0 20 20v60q0 20 -20 20h-560v100z" />
    <glyph glyph-name="s" unicode="s" horiz-adv-x="820" 
d="M760 540v-100h-560q-20 -10 -20 -30t20 -30l420 -120q140 -40 140 -100v-60q0 -100 -120 -100h-580v100h560q20 10 20 30t-20 30l-420 120q-140 40 -140 100v60q0 100 120 100h580z" />
    <glyph glyph-name="t" unicode="t" horiz-adv-x="740" 
d="M20 440v100h700v-100h-290v-440h-120v440h-290z" />
    <glyph glyph-name="u" unicode="u" horiz-adv-x="820" 
d="M760 540v-440q0 -100 -120 -100h-460q-120 0 -120 100v440h120v-420q0 -20 20 -20h420q20 0 20 20v420h120z" />
    <glyph glyph-name="v" unicode="v" horiz-adv-x="740" 
d="M460 40q-20 -40 -90 -40t-90 40l-260 500h140l210 -420l210 420h140z" />
    <glyph glyph-name="w" unicode="w" horiz-adv-x="960" 
d="M420 540h120l140 -420l140 420h120l-160 -480q-20 -60 -80 -60h-20q-60 0 -80 60l-120 340l-120 -340q-20 -60 -80 -60h-20q-60 0 -80 60l-160 480h120l140 -420z" />
    <glyph glyph-name="x" unicode="x" horiz-adv-x="780" 
d="M20 540h160l200 -200l220 200h160l-300 -280l300 -260h-160l-220 180l-200 -180h-160l280 260z" />
    <glyph glyph-name="y" unicode="y" horiz-adv-x="740" 
d="M20 540h160l190 -200l190 200h160l-290 -300v-240h-120v240z" />
    <glyph glyph-name="z" unicode="z" horiz-adv-x="820" 
d="M60 540h580h120v-100q0 -60 -60 -90l-520 -250h580v-100h-580h-120v100q0 50 60 80l520 260h-580v100z" />
    <glyph glyph-name="braceleft" unicode="{" 
 />
    <glyph glyph-name="bar" unicode="|" 
 />
    <glyph glyph-name="braceright" unicode="}" 
 />
    <glyph glyph-name="asciitilde" unicode="~" 
 />
    <glyph glyph-name="nonbreakingspace" unicode="&#xa0;" 
 />
    <glyph glyph-name="exclamdown" unicode="&#xa1;" 
 />
    <glyph glyph-name="cent" unicode="&#xa2;" 
 />
    <glyph glyph-name="sterling" unicode="&#xa3;" 
 />
    <glyph glyph-name="currency" unicode="&#xa4;" 
 />
    <glyph glyph-name="yen" unicode="&#xa5;" 
 />
    <glyph glyph-name="brokenbar" unicode="&#xa6;" 
 />
    <glyph glyph-name="section" unicode="&#xa7;" 
 />
    <glyph glyph-name="dieresis" unicode="&#xa8;" 
 />
    <glyph glyph-name="copyright" unicode="&#xa9;" 
 />
    <glyph glyph-name="ordfeminine" unicode="&#xaa;" 
 />
    <glyph glyph-name="guillemotleft" unicode="&#xab;" 
 />
    <glyph glyph-name="logicalnot" unicode="&#xac;" 
 />
    <glyph glyph-name="uni00AD" unicode="&#xad;" 
 />
    <glyph glyph-name="registered" unicode="&#xae;" 
 />
    <glyph glyph-name="macron" unicode="&#xaf;" 
 />
    <glyph glyph-name="degree" unicode="&#xb0;" 
 />
    <glyph glyph-name="plusminus" unicode="&#xb1;" 
 />
    <glyph glyph-name="twosuperior" unicode="&#xb2;" 
 />
    <glyph glyph-name="threesuperior" unicode="&#xb3;" 
 />
    <glyph glyph-name="acute" unicode="&#xb4;" 
 />
    <glyph glyph-name="mu" unicode="&#xb5;" 
 />
    <glyph glyph-name="paragraph" unicode="&#xb6;" 
 />
    <glyph glyph-name="periodcentered" unicode="&#xb7;" 
 />
    <glyph glyph-name="cedilla" unicode="&#xb8;" 
 />
    <glyph glyph-name="onesuperior" unicode="&#xb9;" 
 />
    <glyph glyph-name="ordmasculine" unicode="&#xba;" 
 />
    <glyph glyph-name="guillemotright" unicode="&#xbb;" 
 />
    <glyph glyph-name="onequarter" unicode="&#xbc;" 
 />
    <glyph glyph-name="onehalf" unicode="&#xbd;" 
 />
    <glyph glyph-name="threequarters" unicode="&#xbe;" 
 />
    <glyph glyph-name="questiondown" unicode="&#xbf;" 
 />
    <glyph glyph-name="Agrave" unicode="&#xc0;" 
 />
    <glyph glyph-name="Aacute" unicode="&#xc1;" 
 />
    <glyph glyph-name="Acircumflex" unicode="&#xc2;" 
 />
    <glyph glyph-name="Atilde" unicode="&#xc3;" 
 />
    <glyph glyph-name="Adieresis" unicode="&#xc4;" 
 />
    <glyph glyph-name="Aring" unicode="&#xc5;" 
 />
    <glyph glyph-name="AE" unicode="&#xc6;" 
 />
    <glyph glyph-name="Ccedilla" unicode="&#xc7;" 
 />
    <glyph glyph-name="Egrave" unicode="&#xc8;" 
 />
    <glyph glyph-name="Eacute" unicode="&#xc9;" 
 />
    <glyph glyph-name="Ecircumflex" unicode="&#xca;" 
 />
    <glyph glyph-name="Edieresis" unicode="&#xcb;" 
 />
    <glyph glyph-name="Igrave" unicode="&#xcc;" 
 />
    <glyph glyph-name="Iacute" unicode="&#xcd;" 
 />
    <glyph glyph-name="Icircumflex" unicode="&#xce;" 
 />
    <glyph glyph-name="Idieresis" unicode="&#xcf;" 
 />
    <glyph glyph-name="Eth" unicode="&#xd0;" 
 />
    <glyph glyph-name="Ntilde" unicode="&#xd1;" 
 />
    <glyph glyph-name="Ograve" unicode="&#xd2;" 
 />
    <glyph glyph-name="Oacute" unicode="&#xd3;" 
 />
    <glyph glyph-name="Ocircumflex" unicode="&#xd4;" 
 />
    <glyph glyph-name="Otilde" unicode="&#xd5;" 
 />
    <glyph glyph-name="Odieresis" unicode="&#xd6;" 
 />
    <glyph glyph-name="multiply" unicode="&#xd7;" 
 />
    <glyph glyph-name="Oslash" unicode="&#xd8;" 
 />
    <glyph glyph-name="Ugrave" unicode="&#xd9;" 
 />
    <glyph glyph-name="Uacute" unicode="&#xda;" 
 />
    <glyph glyph-name="Ucircumflex" unicode="&#xdb;" 
 />
    <glyph glyph-name="Udieresis" unicode="&#xdc;" 
 />
    <glyph glyph-name="Yacute" unicode="&#xdd;" 
 />
    <glyph glyph-name="Thorn" unicode="&#xde;" 
 />
    <glyph glyph-name="germandbls" unicode="&#xdf;" 
 />
    <glyph glyph-name="agrave" unicode="&#xe0;" 
 />
    <glyph glyph-name="aacute" unicode="&#xe1;" 
 />
    <glyph glyph-name="acircumflex" unicode="&#xe2;" 
 />
    <glyph glyph-name="atilde" unicode="&#xe3;" 
 />
    <glyph glyph-name="adieresis" unicode="&#xe4;" 
 />
    <glyph glyph-name="aring" unicode="&#xe5;" 
 />
    <glyph glyph-name="ae" unicode="&#xe6;" 
 />
    <glyph glyph-name="ccedilla" unicode="&#xe7;" 
 />
    <glyph glyph-name="egrave" unicode="&#xe8;" 
 />
    <glyph glyph-name="eacute" unicode="&#xe9;" 
 />
    <glyph glyph-name="ecircumflex" unicode="&#xea;" 
 />
    <glyph glyph-name="edieresis" unicode="&#xeb;" 
 />
    <glyph glyph-name="igrave" unicode="&#xec;" 
 />
    <glyph glyph-name="iacute" unicode="&#xed;" 
 />
    <glyph glyph-name="icircumflex" unicode="&#xee;" 
 />
    <glyph glyph-name="idieresis" unicode="&#xef;" 
 />
    <glyph glyph-name="eth" unicode="&#xf0;" 
 />
    <glyph glyph-name="ntilde" unicode="&#xf1;" 
 />
    <glyph glyph-name="ograve" unicode="&#xf2;" 
 />
    <glyph glyph-name="oacute" unicode="&#xf3;" 
 />
    <glyph glyph-name="ocircumflex" unicode="&#xf4;" 
 />
    <glyph glyph-name="otilde" unicode="&#xf5;" 
 />
    <glyph glyph-name="odieresis" unicode="&#xf6;" 
 />
    <glyph glyph-name="divide" unicode="&#xf7;" 
 />
    <glyph glyph-name="oslash" unicode="&#xf8;" 
 />
    <glyph glyph-name="ugrave" unicode="&#xf9;" 
 />
    <glyph glyph-name="uacute" unicode="&#xfa;" 
 />
    <glyph glyph-name="ucircumflex" unicode="&#xfb;" 
 />
    <glyph glyph-name="udieresis" unicode="&#xfc;" 
 />
    <glyph glyph-name="yacute" unicode="&#xfd;" 
 />
    <glyph glyph-name="thorn" unicode="&#xfe;" 
 />
    <glyph glyph-name="ydieresis" unicode="&#xff;" 
 />
    <glyph glyph-name="OE" unicode="&#x152;" 
 />
    <glyph glyph-name="oe" unicode="&#x153;" 
 />
    <glyph glyph-name="Scaron" unicode="&#x160;" 
 />
    <glyph glyph-name="scaron" unicode="&#x161;" 
 />
    <glyph glyph-name="Ydieresis" unicode="&#x178;" 
 />
    <glyph glyph-name="Zcaron" unicode="&#x17d;" 
 />
    <glyph glyph-name="zcaron" unicode="&#x17e;" 
 />
    <glyph glyph-name="florin" unicode="&#x192;" 
 />
    <glyph glyph-name="circumflex" unicode="&#x2c6;" 
 />
    <glyph glyph-name="tilde" unicode="&#x2dc;" 
 />
    <glyph glyph-name="endash" unicode="&#x2013;" 
 />
    <glyph glyph-name="emdash" unicode="&#x2014;" 
 />
    <glyph glyph-name="quoteleft" unicode="&#x2018;" 
 />
    <glyph glyph-name="quoteright" unicode="&#x2019;" 
 />
    <glyph glyph-name="quotesinglbase" unicode="&#x201a;" 
 />
    <glyph glyph-name="quotedblleft" unicode="&#x201c;" 
 />
    <glyph glyph-name="quotedblright" unicode="&#x201d;" 
 />
    <glyph glyph-name="quotedblbase" unicode="&#x201e;" 
 />
    <glyph glyph-name="dagger" unicode="&#x2020;" 
 />
    <glyph glyph-name="daggerdbl" unicode="&#x2021;" 
 />
    <glyph glyph-name="bullet" unicode="&#x2022;" 
 />
    <glyph glyph-name="ellipsis" unicode="&#x2026;" 
 />
    <glyph glyph-name="perthousand" unicode="&#x2030;" 
 />
    <glyph glyph-name="guilsinglleft" unicode="&#x2039;" 
 />
    <glyph glyph-name="guilsinglright" unicode="&#x203a;" 
 />
    <glyph glyph-name="Euro" unicode="&#x20ac;" 
 />
    <glyph glyph-name="trademark" unicode="&#x2122;" 
 />
    <glyph glyph-name="uni2219" unicode="&#x2219;" 
 />
  </font>
</defs>
</svg>
