<?xml version="1.0" standalone="no"?>
<!DOCTYPE svg PUBLIC "-//W3C//DTD SVG 20010904//EN"
 "http://www.w3.org/TR/2001/REC-SVG-20010904/DTD/svg10.dtd">
<svg version="1.0" xmlns="http://www.w3.org/2000/svg"
 width="209.000000pt" height="209.000000pt" viewBox="0 0 209.000000 209.000000"
 preserveAspectRatio="xMidYMid meet">
<metadata>
Created by potrace 1.11, written by Peter Selinger 2001-2013
</metadata>
<g transform="translate(0.000000,209.000000) scale(0.100000,-0.100000)"
fill="#000000" stroke="none">
<path d="M366 2045 c-2 -6 -5 -59 -6 -116 -2 -151 -8 -196 -33 -227 -8 -10
-16 -7 -38 14 -15 14 -32 23 -37 20 -6 -4 -13 -2 -17 3 -8 14 -48 4 -63 -16
-7 -10 -10 -27 -7 -38 3 -11 7 -54 10 -95 3 -41 9 -91 14 -111 8 -37 7 -82 -4
-135 -5 -21 -1 -42 9 -62 9 -17 16 -47 16 -67 0 -46 31 -107 64 -125 33 -17
33 -24 -4 -42 -49 -24 -69 -59 -74 -129 -2 -35 -9 -65 -15 -67 -6 -2 -8 -8 -5
-14 3 -5 -4 -20 -16 -33 -19 -20 -21 -32 -18 -87 3 -56 5 -63 25 -66 45 -7 41
-76 -5 -85 -30 -7 -75 -68 -66 -90 3 -8 67 -38 142 -67 605 -230 770 -293 787
-300 146 -65 287 -95 307 -65 5 6 8 5 8 -3 0 -9 5 -10 19 -2 14 7 22 7 26 0 5
-8 12 -7 23 2 9 7 13 8 9 2 -4 -7 4 -11 23 -10 17 1 30 3 30 6 0 3 78 5 173 5
94 0 177 3 183 7 7 5 10 33 8 76 -2 37 -6 145 -8 240 -3 167 -2 173 16 169 15
-4 19 -1 18 16 -4 45 -1 51 16 36 8 -7 13 -21 11 -30 -3 -10 2 -20 10 -23 22
-9 23 -8 23 14 0 11 5 29 12 40 17 26 0 40 -18 15 -15 -20 -15 -20 -20 0 -5
18 -23 23 -63 16 -3 -1 0 -6 6 -12 6 -6 9 -18 6 -26 -9 -22 -23 5 -23 44 0 32
0 32 45 23 40 -9 73 2 84 26 18 39 -6 68 -79 95 -67 24 -68 42 -3 54 48 9 80
31 101 69 17 31 25 69 13 61 -4 -2 -12 9 -19 25 -14 31 -36 40 -105 40 -35 0
-47 4 -44 13 2 6 12 12 23 12 45 1 75 36 83 95 0 6 10 10 20 10 15 0 31 18 31
34 0 1 -12 3 -26 4 -15 1 -41 11 -59 22 -18 11 -43 20 -56 20 l-24 0 -1 143
c-3 271 -14 652 -20 670 -4 14 -9 16 -20 6 -8 -6 -14 -7 -14 -2 0 13 -53 11
-62 -2 -5 -6 -12 -5 -18 5 -5 8 -10 10 -10 5 0 -6 -9 -11 -20 -11 -11 0 -20 3
-20 6 0 6 -41 5 -47 0 -8 -7 -70 -5 -84 1 -9 5 -19 5 -23 2 -9 -9 -86 -11 -86
-3 0 9 -32 6 -48 -4 -6 -4 -18 -4 -24 0 -14 9 -46 9 -68 1 -22 -9 -343 -3
-357 6 -7 5 -13 4 -13 -1 0 -4 -20 -8 -45 -8 -25 1 -45 4 -45 7 0 3 -10 5 -22
3 -13 -1 -23 -3 -23 -4 0 -1 -8 -3 -17 -5 -10 -2 -18 1 -18 7 0 7 -4 7 -13 0
-8 -7 -18 -7 -27 -2 -9 5 -19 5 -27 -2 -8 -6 -13 -6 -13 -1 0 10 -28 11 -45 2
-9 -5 -31 -4 -37 1 -10 7 -39 7 -44 -1 -3 -5 -12 -5 -23 1 -12 6 -22 5 -29 -2
-9 -9 -12 -9 -12 -1 0 15 -58 13 -64 -2z m1484 -860 c25 -30 -6 -134 -32 -107
-5 6 -12 88 -9 115 2 13 28 8 41 -8z m55 -237 c42 -19 28 -98 -19 -98 -8 0
-17 -4 -20 -9 -4 -5 -14 -8 -24 -6 -9 2 -19 4 -22 4 -3 1 -6 28 -6 61 l0 60
33 0 c17 0 44 -5 58 -12z"/>
</g>
</svg>
